<?xml version="1.0" standalone="no"?>
<!DOCTYPE svg PUBLIC "-//W3C//DTD SVG 20010904//EN"
 "http://www.w3.org/TR/2001/REC-SVG-20010904/DTD/svg10.dtd">
<svg version="1.0" xmlns="http://www.w3.org/2000/svg"
 width="1019.000000pt" height="1019.000000pt" viewBox="0 0 1019.000000 1019.000000"
 preserveAspectRatio="xMidYMid meet">
<metadata>
Created by potrace 1.14, written by Peter Selinger 2001-2017
</metadata>
<g transform="translate(0.000000,1019.000000) scale(0.100000,-0.100000)"
fill="#000000" stroke="none">
<path d="M5009 10186 c-2 -2 -80 -6 -172 -10 -189 -8 -440 -35 -597 -66 -58
-11 -121 -23 -140 -26 -177 -27 -671 -179 -875 -268 -16 -8 -50 -23 -75 -33
-25 -11 -74 -33 -110 -49 -267 -116 -704 -381 -938 -568 -258 -206 -525 -452
-678 -626 -146 -166 -225 -264 -346 -430 -53 -73 -184 -271 -218 -330 -11 -19
-32 -53 -45 -75 -36 -58 -195 -351 -195 -359 0 -4 -13 -35 -29 -69 -106 -227
-228 -544 -251 -653 -5 -22 -16 -58 -24 -80 -13 -31 -57 -196 -82 -309 -9 -37
-32 -160 -38 -195 -3 -19 -10 -57 -15 -85 -21 -101 -51 -369 -62 -557 -11
-179 -7 -561 7 -728 8 -102 44 -391 54 -435 8 -38 13 -65 26 -145 12 -74 77
-339 101 -415 14 -44 29 -96 34 -115 15 -73 137 -400 199 -535 23 -49 49 -108
58 -130 31 -77 162 -322 227 -426 5 -9 20 -34 33 -55 36 -63 165 -258 220
-334 193 -265 318 -410 566 -654 140 -138 366 -335 496 -432 113 -83 135 -99
264 -183 157 -103 145 -95 276 -169 179 -101 231 -128 340 -177 58 -26 123
-55 146 -65 139 -63 429 -167 591 -211 142 -38 298 -77 338 -83 22 -3 99 -16
170 -30 72 -13 159 -27 195 -31 36 -4 74 -9 85 -11 67 -13 362 -27 550 -27
182 0 484 15 553 27 9 2 44 7 77 10 33 4 123 18 200 32 77 14 154 28 170 31
56 8 340 82 434 113 52 16 98 30 103 30 17 0 335 126 443 175 39 18 95 43 125
56 58 25 88 40 215 109 339 181 730 460 997 710 39 36 76 68 83 72 57 33 523
569 616 709 13 20 63 94 110 165 428 639 701 1368 810 2159 138 1012 -38 2086
-490 2985 -102 203 -187 354 -248 442 -18 26 -33 50 -33 53 0 4 -60 93 -145
215 -261 373 -661 787 -1035 1068 -234 176 -470 329 -670 434 -47 24 -94 50
-105 56 -11 6 -56 28 -100 48 -44 20 -98 44 -120 54 -125 58 -171 76 -385 155
-281 104 -729 205 -1060 240 -204 21 -619 42 -631 31z"/>
</g>
</svg>
